<svg width="894" height="969" viewBox="0 0 894 969" fill="none" xmlns="http://www.w3.org/2000/svg">
<path d="M759 140.5L760.218 139.624L759 140.5ZM201 426.5L200.939 425.001L200.932 425.002L200.925 425.002L201 426.5ZM201 612L201.511 610.59L201 612ZM759 595.5L759.428 594.062L758.314 593.731L757.715 594.727L759 595.5ZM203.5 754.5L204 753.086L202.463 752.543L202.049 754.119L203.5 754.5ZM718.097 958.023C718.662 957.418 718.629 956.468 718.023 955.903L708.152 946.694C707.547 946.129 706.597 946.161 706.032 946.767C705.467 947.373 705.5 948.322 706.106 948.887L714.88 957.073L706.694 965.848C706.129 966.453 706.161 967.403 706.767 967.968C707.373 968.533 708.322 968.5 708.887 967.894L718.097 958.023ZM215.463 56.5791C216.222 56.2479 216.569 55.3639 216.238 54.6045C215.907 53.8452 215.023 53.4981 214.264 53.8292L215.463 56.5791ZM242.643 42.3562C241.867 42.647 241.474 43.5115 241.764 44.2872C242.055 45.063 242.92 45.4562 243.695 45.1654L242.643 42.3562ZM272.501 35.1433C273.289 34.8892 273.722 34.0441 273.468 33.2556C273.214 32.4671 272.369 32.0338 271.581 32.2878L272.501 35.1433ZM300.928 23.5541C300.129 23.7727 299.658 24.5976 299.877 25.3967C300.095 26.1958 300.92 26.6664 301.719 26.4478L300.928 23.5541ZM331.263 19.0678C332.071 18.885 332.577 18.0818 332.395 17.2738C332.212 16.4658 331.409 15.959 330.601 16.1418L331.263 19.0678ZM360.62 10.063C359.804 10.2087 359.261 10.9879 359.407 11.8034C359.552 12.619 360.332 13.1619 361.147 13.0162L360.62 10.063ZM391.276 8.36774C392.098 8.26124 392.677 7.5089 392.571 6.68735C392.464 5.8658 391.712 5.28613 390.89 5.39263L391.276 8.36774ZM421.338 2.2226C420.512 2.28714 419.895 3.00899 419.96 3.8349C420.024 4.6608 420.746 5.27802 421.572 5.21348L421.338 2.2226ZM452.011 3.66258C452.839 3.64344 453.495 2.95652 453.476 2.12832C453.457 1.30011 452.77 0.644238 451.942 0.663381L452.011 3.66258ZM482.564 0.854052C481.736 0.823901 481.041 1.47059 481.011 2.29846C480.981 3.12634 481.627 3.82191 482.455 3.85206L482.564 0.854052ZM512.834 5.9333C513.658 6.01713 514.395 5.41696 514.478 4.59279C514.562 3.76861 513.962 3.03253 513.138 2.9487L512.834 5.9333ZM543.498 7.11348C542.682 6.97142 541.905 7.51788 541.763 8.33403C541.621 9.15019 542.168 9.92698 542.984 10.069L543.498 7.11348ZM572.737 16.426C573.54 16.6308 574.356 16.146 574.561 15.3433C574.766 14.5406 574.281 13.7239 573.478 13.5191L572.737 16.426ZM602.848 22.3202C602.065 22.0489 601.21 22.4635 600.939 23.2463C600.668 24.029 601.083 24.8835 601.865 25.1548L602.848 22.3202ZM630.119 36.3765C630.874 36.7169 631.763 36.3806 632.103 35.6253C632.443 34.8701 632.107 33.9818 631.352 33.6414L630.119 36.3765ZM658.689 47.5427C657.969 47.1324 657.053 47.3833 656.643 48.103C656.232 48.8227 656.483 49.7387 657.203 50.149L658.689 47.5427ZM682.842 66.4665C683.518 66.945 684.454 66.7847 684.933 66.1084C685.411 65.4322 685.251 64.4961 684.575 64.0176L682.842 66.4665ZM708.698 82.9327C708.072 82.3902 707.125 82.4579 706.582 83.0839C706.039 83.7099 706.107 84.6573 706.733 85.1998L708.698 82.9327ZM728.746 106.235C729.316 106.835 730.266 106.86 730.866 106.289C731.467 105.718 731.491 104.769 730.92 104.168L728.746 106.235ZM750.941 127.301C750.428 126.65 749.485 126.539 748.834 127.052C748.183 127.565 748.072 128.508 748.585 129.158L750.941 127.301ZM766.424 154.374C766.855 155.081 767.779 155.304 768.486 154.873C769.193 154.442 769.417 153.518 768.985 152.811L766.424 154.374ZM782.589 180.728C782.309 179.949 781.45 179.544 780.67 179.825C779.891 180.105 779.486 180.964 779.767 181.744L782.589 180.728ZM785.937 211.344C785.978 212.172 786.681 212.81 787.509 212.769C788.336 212.728 788.974 212.024 788.933 211.197L785.937 211.344ZM784.886 242.245C785.138 241.456 784.704 240.612 783.915 240.359C783.126 240.106 782.282 240.54 782.029 241.329L784.886 242.245ZM768.198 268.309C767.715 268.982 767.87 269.919 768.544 270.402C769.217 270.884 770.154 270.729 770.636 270.056L768.198 268.309ZM749.744 293.086C750.359 292.532 750.409 291.583 749.854 290.968C749.3 290.352 748.351 290.303 747.736 290.857L749.744 293.086ZM723.451 309.568C722.763 310.029 722.577 310.96 723.037 311.649C723.498 312.338 724.429 312.523 725.118 312.063L723.451 309.568ZM698.402 327.935C699.133 327.546 699.411 326.638 699.022 325.906C698.633 325.175 697.725 324.897 696.993 325.286L698.402 327.935ZM669.247 338.703C668.489 339.038 668.146 339.923 668.48 340.681C668.814 341.439 669.7 341.782 670.458 341.448L669.247 338.703ZM641.805 353.108C642.581 352.817 642.973 351.952 642.681 351.176C642.39 350.401 641.525 350.009 640.749 350.3L641.805 353.108ZM611.625 360.493C610.837 360.75 610.407 361.597 610.664 362.385C610.921 363.172 611.767 363.602 612.555 363.346L611.625 360.493ZM582.905 372.4C583.702 372.172 584.163 371.342 583.935 370.545C583.707 369.749 582.876 369.288 582.08 369.516L582.905 372.4ZM552.243 377.547C551.44 377.75 550.954 378.566 551.157 379.369C551.36 380.172 552.176 380.658 552.979 380.455L552.243 377.547ZM522.893 387.641C523.701 387.459 524.209 386.657 524.027 385.848C523.845 385.04 523.042 384.533 522.234 384.715L522.893 387.641ZM492.046 391.142C491.234 391.305 490.708 392.096 490.871 392.908C491.035 393.72 491.825 394.246 492.638 394.083L492.046 391.142ZM462.241 399.863C463.057 399.717 463.599 398.937 463.452 398.122C463.306 397.306 462.526 396.764 461.711 396.911L462.241 399.863ZM431.259 402.083C430.441 402.214 429.884 402.983 430.015 403.801C430.146 404.619 430.916 405.176 431.734 405.045L431.259 402.083ZM401.136 409.677C401.957 409.56 402.527 408.8 402.41 407.98C402.293 407.16 401.533 406.59 400.713 406.707L401.136 409.677ZM370.092 410.82C369.27 410.923 368.688 411.674 368.791 412.496C368.895 413.318 369.645 413.9 370.467 413.796L370.092 410.82ZM339.741 417.43C340.565 417.339 341.159 416.598 341.068 415.774C340.977 414.951 340.235 414.357 339.412 414.448L339.741 417.43ZM308.691 417.609C307.867 417.687 307.262 418.42 307.34 419.244C307.419 420.069 308.151 420.674 308.976 420.595L308.691 417.609ZM278.194 423.3C279.019 423.233 279.635 422.51 279.569 421.684C279.502 420.858 278.779 420.243 277.953 420.309L278.194 423.3ZM247.146 422.551C246.32 422.605 245.693 423.319 245.747 424.145C245.801 424.972 246.515 425.598 247.341 425.545L247.146 422.551ZM216.376 427.314C217.203 427.273 217.841 426.569 217.801 425.742C217.76 424.915 217.057 424.277 216.229 424.317L216.376 427.314ZM186.563 425.833C185.737 425.887 185.111 426.602 185.165 427.428C185.219 428.255 185.934 428.881 186.76 428.827L186.563 425.833ZM158.179 431.167C159.004 431.086 159.606 430.351 159.525 429.527C159.444 428.702 158.71 428.1 157.885 428.181L158.179 431.167ZM129.294 431.52C128.474 431.632 127.899 432.388 128.011 433.208C128.122 434.029 128.879 434.604 129.699 434.492L129.294 431.52ZM101.398 438.993C102.212 438.843 102.751 438.061 102.601 437.246C102.451 436.431 101.669 435.893 100.854 436.043L101.398 438.993ZM72.6653 442.137C71.8622 442.34 71.3761 443.156 71.5795 443.959C71.7829 444.762 72.5988 445.249 73.4018 445.045L72.6653 442.137ZM46.0311 453.423C46.8074 453.134 47.202 452.27 46.9125 451.494C46.6231 450.717 45.7592 450.323 44.983 450.612L46.0311 453.423ZM18.9351 463.419C18.2488 463.883 18.0685 464.815 18.5324 465.502C18.9963 466.188 19.9288 466.368 20.6152 465.904L18.9351 463.419ZM4.09186 486.962C4.24449 486.148 3.70814 485.364 2.8939 485.212C2.07965 485.059 1.29585 485.595 1.14322 486.41L4.09186 486.962ZM10.3883 514.011C10.9057 514.659 11.8496 514.764 12.4966 514.246C13.1436 513.729 13.2488 512.785 12.7314 512.138L10.3883 514.011ZM33.292 531.237C32.6294 530.74 31.6892 530.874 31.1919 531.537C30.6947 532.199 30.8288 533.139 31.4914 533.637L33.292 531.237ZM55.7175 549.591C56.4311 550.012 57.3507 549.775 57.7716 549.061C58.1925 548.348 57.9553 547.428 57.2417 547.007L55.7175 549.591ZM82.2048 560.615C81.4662 560.239 80.5633 560.534 80.188 561.273C79.8128 562.011 80.1074 562.914 80.8459 563.289L82.2048 560.615ZM106.839 575.773C107.593 576.117 108.483 575.785 108.827 575.031C109.17 574.277 108.838 573.388 108.084 573.044L106.839 575.773ZM134.389 584.538C133.625 584.218 132.746 584.577 132.425 585.341C132.104 586.105 132.463 586.984 133.227 587.305L134.389 584.538ZM159.831 598.097C160.602 598.4 161.473 598.02 161.775 597.249C162.078 596.478 161.699 595.608 160.928 595.305L159.831 598.097ZM187.667 605.512C186.89 605.223 186.027 605.619 185.738 606.396C185.45 607.172 185.845 608.035 186.622 608.324L187.667 605.512ZM214.587 618.442C215.368 618.717 216.225 618.306 216.499 617.524C216.774 616.743 216.363 615.886 215.582 615.612L214.587 618.442ZM243.482 625.116C242.695 624.856 241.847 625.284 241.588 626.071C241.329 626.857 241.756 627.706 242.543 627.965L243.482 625.116ZM270.677 636.913C271.469 637.155 272.308 636.71 272.551 635.918C272.793 635.126 272.348 634.287 271.556 634.044L270.677 636.913ZM299.822 642.357C299.025 642.132 298.196 642.596 297.972 643.394C297.747 644.191 298.212 645.02 299.009 645.244L299.822 642.357ZM327.552 652.909C328.354 653.114 329.171 652.63 329.376 651.827C329.581 651.024 329.096 650.208 328.293 650.003L327.552 652.909ZM356.974 656.923C356.166 656.739 355.362 657.245 355.179 658.053C354.996 658.861 355.502 659.665 356.31 659.848L356.974 656.923ZM385.279 665.989C386.092 666.149 386.88 665.62 387.04 664.807C387.2 663.994 386.671 663.205 385.858 663.045L385.279 665.989ZM414.926 668.289C414.108 668.155 413.337 668.709 413.203 669.526C413.069 670.344 413.624 671.115 414.441 671.249L414.926 668.289ZM443.763 675.532C444.584 675.638 445.336 675.057 445.441 674.235C445.546 673.413 444.965 672.662 444.143 672.557L443.763 675.532ZM473.455 675.742C472.63 675.669 471.901 676.279 471.828 677.104C471.755 677.929 472.364 678.657 473.189 678.731L473.455 675.742ZM502.644 680.723C503.471 680.761 504.173 680.12 504.211 679.293C504.248 678.465 503.608 677.764 502.781 677.726L502.644 680.723ZM532.295 678.376C531.467 678.378 530.797 679.051 530.799 679.88C530.801 680.708 531.474 681.378 532.303 681.376L532.295 678.376ZM561.889 680.511C562.716 680.464 563.348 679.755 563.301 678.928C563.254 678.101 562.545 677.469 561.718 677.516L561.889 680.511ZM591.078 674.946C590.256 675.045 589.669 675.791 589.767 676.614C589.865 677.436 590.612 678.023 591.434 677.925L591.078 674.946ZM620.678 673.39C621.492 673.233 622.024 672.447 621.867 671.633C621.71 670.82 620.924 670.288 620.11 670.444L620.678 673.39ZM648.717 663.718C647.919 663.942 647.454 664.77 647.678 665.568C647.902 666.365 648.73 666.83 649.528 666.606L648.717 663.718ZM677.716 657.204C678.488 656.902 678.868 656.031 678.566 655.26C678.264 654.489 677.394 654.108 676.623 654.41L677.716 657.204ZM703.284 642.129C702.555 642.522 702.282 643.432 702.675 644.161C703.069 644.89 703.979 645.163 704.708 644.77L703.284 642.129ZM729.776 628.745C730.435 628.244 730.563 627.303 730.062 626.643C729.56 625.984 728.619 625.856 727.96 626.357L729.776 628.745ZM749.219 606.476C748.684 607.109 748.763 608.055 749.396 608.59C750.029 609.125 750.975 609.045 751.51 608.412L749.219 606.476ZM772.877 601.469C773.663 601.732 774.513 601.309 774.777 600.524C775.04 599.739 774.617 598.888 773.832 598.625L772.877 601.469ZM802.194 609.265C801.43 608.946 800.551 609.307 800.232 610.072C799.913 610.836 800.274 611.715 801.039 612.034L802.194 609.265ZM828.239 624.761C828.972 625.147 829.879 624.865 830.265 624.132C830.651 623.399 830.369 622.492 829.636 622.106L828.239 624.761ZM855.604 637.868C854.928 637.388 853.992 637.547 853.512 638.223C853.033 638.898 853.191 639.834 853.867 640.314L855.604 637.868ZM876.114 660.003C876.654 660.631 877.601 660.703 878.229 660.163C878.857 659.623 878.929 658.675 878.389 658.047L876.114 660.003ZM892.434 685.256C892.288 684.44 891.508 683.898 890.692 684.045C889.877 684.192 889.335 684.972 889.482 685.787L892.434 685.256ZM884.245 713.805C883.844 714.53 884.106 715.443 884.831 715.844C885.556 716.245 886.469 715.983 886.87 715.258L884.245 713.805ZM867.094 738.562C867.718 738.018 867.784 737.07 867.24 736.445C866.696 735.82 865.748 735.755 865.124 736.299L867.094 738.562ZM840.94 753.759C840.235 754.194 840.015 755.118 840.45 755.823C840.884 756.529 841.808 756.748 842.513 756.314L840.94 753.759ZM815.911 770.877C816.654 770.512 816.96 769.612 816.594 768.869C816.228 768.126 815.329 767.82 814.586 768.186L815.911 770.877ZM786.927 780.553C786.157 780.86 785.782 781.733 786.089 782.502C786.396 783.272 787.269 783.647 788.039 783.34L786.927 780.553ZM759.191 793.53C759.982 793.284 760.424 792.443 760.178 791.652C759.932 790.861 759.092 790.419 758.301 790.665L759.191 793.53ZM728.958 798.685C728.152 798.877 727.654 799.686 727.846 800.492C728.038 801.298 728.847 801.796 729.653 801.604L728.958 798.685ZM699.732 807.793C700.548 807.649 701.092 806.87 700.948 806.055C700.803 805.239 700.024 804.695 699.209 804.839L699.732 807.793ZM669.103 809.37C668.281 809.473 667.698 810.223 667.801 811.045C667.903 811.867 668.653 812.45 669.475 812.347L669.103 809.37ZM639.089 815.443C639.915 815.377 640.531 814.654 640.466 813.828C640.4 813.002 639.677 812.386 638.851 812.452L639.089 815.443ZM608.456 814.254C607.628 814.287 606.984 814.985 607.016 815.813C607.049 816.64 607.747 817.285 608.575 817.252L608.456 814.254ZM578.034 817.907C578.863 817.904 579.531 817.23 579.528 816.401C579.525 815.573 578.851 814.904 578.023 814.907L578.034 817.907ZM547.574 814.523C546.746 814.5 546.055 815.152 546.031 815.98C546.008 816.808 546.66 817.498 547.488 817.522L547.574 814.523ZM516.972 816.19C517.799 816.239 518.508 815.607 518.556 814.78C518.605 813.953 517.973 813.244 517.146 813.195L516.972 816.19ZM486.763 811C485.938 810.929 485.211 811.54 485.14 812.366C485.07 813.191 485.681 813.918 486.507 813.989L486.763 811ZM456.128 810.981C456.951 811.073 457.693 810.48 457.785 809.657C457.878 808.833 457.285 808.091 456.462 807.999L456.128 810.981ZM426.211 804.239C425.39 804.127 424.634 804.701 424.522 805.522C424.41 806.343 424.984 807.099 425.805 807.211L426.211 804.239ZM395.63 802.728C396.447 802.859 397.217 802.302 397.348 801.484C397.48 800.666 396.923 799.897 396.105 799.766L395.63 802.728ZM366.047 794.588C365.232 794.438 364.45 794.977 364.3 795.791C364.15 796.606 364.689 797.388 365.504 797.538L366.047 794.588ZM335.551 791.672C336.362 791.841 337.156 791.32 337.325 790.509C337.493 789.698 336.972 788.904 336.161 788.735L335.551 791.672ZM306.428 782.198C305.621 782.011 304.815 782.513 304.627 783.32C304.44 784.127 304.942 784.933 305.749 785.12L306.428 782.198ZM276.049 777.837C276.851 778.044 277.669 777.562 277.877 776.76C278.084 775.958 277.602 775.14 276.8 774.933L276.049 777.837ZM247.408 766.896C246.612 766.665 245.78 767.124 245.55 767.92C245.32 768.716 245.779 769.547 246.574 769.777L247.408 766.896ZM217.393 760.808C218.181 761.066 219.028 760.637 219.286 759.85C219.544 759.062 219.115 758.215 218.328 757.957L217.393 760.808ZM199.587 769.483C199.534 770.31 200.161 771.023 200.988 771.076C201.815 771.129 202.528 770.502 202.581 769.675L199.587 769.483ZM205.855 799.419C205.632 798.621 204.804 798.156 204.006 798.379C203.208 798.602 202.743 799.43 202.966 800.228L205.855 799.419ZM215.447 828.528C215.878 829.235 216.801 829.46 217.508 829.029C218.216 828.598 218.44 827.675 218.009 826.967L215.447 828.528ZM236.446 850.839C235.876 850.237 234.927 850.212 234.325 850.782C233.724 851.351 233.699 852.301 234.268 852.902L236.446 850.839ZM257.313 873.441C257.972 873.943 258.913 873.816 259.415 873.157C259.917 872.498 259.79 871.557 259.131 871.055L257.313 873.441ZM284.445 887.889C283.729 887.472 282.811 887.714 282.394 888.429C281.976 889.145 282.218 890.064 282.934 890.481L284.445 887.889ZM310.132 904.579C310.884 904.926 311.775 904.597 312.122 903.845C312.469 903.093 312.141 902.202 311.388 901.855L310.132 904.579ZM339.51 913.494C338.733 913.206 337.87 913.602 337.581 914.379C337.293 915.155 337.689 916.019 338.466 916.307L339.51 913.494ZM367.598 926.058C368.391 926.297 369.227 925.848 369.466 925.055C369.705 924.261 369.256 923.425 368.463 923.186L367.598 926.058ZM397.929 931.204C397.125 931.007 396.313 931.499 396.116 932.304C395.918 933.108 396.411 933.92 397.216 934.118L397.929 931.204ZM427.056 940.716C427.868 940.877 428.658 940.349 428.819 939.537C428.981 938.724 428.453 937.935 427.641 937.773L427.056 940.716ZM457.674 943.134C456.856 943.003 456.087 943.561 455.956 944.379C455.826 945.197 456.384 945.966 457.202 946.096L457.674 943.134ZM487.533 950.404C488.355 950.508 489.105 949.925 489.208 949.103C489.311 948.281 488.729 947.531 487.907 947.428L487.533 950.404ZM518.262 950.779C517.438 950.7 516.705 951.305 516.626 952.129C516.547 952.954 517.151 953.687 517.976 953.766L518.262 950.779ZM548.491 956.287C549.317 956.345 550.034 955.722 550.092 954.896C550.15 954.069 549.526 953.352 548.7 953.295L548.491 956.287ZM579.205 955.063C578.378 955.024 577.676 955.664 577.637 956.491C577.599 957.319 578.238 958.021 579.066 958.059L579.205 955.063ZM609.707 959.156C610.535 959.177 611.223 958.523 611.244 957.695C611.266 956.867 610.611 956.178 609.783 956.157L609.707 959.156ZM640.453 956.64C639.625 956.635 638.949 957.302 638.944 958.13C638.939 958.959 639.606 959.634 640.434 959.64L640.453 956.64ZM671.029 959.563C671.858 959.554 672.522 958.875 672.512 958.046C672.503 957.218 671.824 956.554 670.996 956.563L671.029 959.563ZM701.419 955.98C700.591 956.003 699.938 956.692 699.96 957.52C699.983 958.348 700.672 959.001 701.5 958.979L701.419 955.98ZM201.642 62.8558C206.05 60.7696 210.661 58.6732 215.463 56.5791L214.264 53.8292C209.435 55.9353 204.795 58.0444 200.358 60.1441L201.642 62.8558ZM243.695 45.1654C252.853 41.7336 262.475 38.3732 272.501 35.1433L271.581 32.2878C261.511 35.5321 251.844 38.9079 242.643 42.3562L243.695 45.1654ZM301.719 26.4478C311.309 23.825 321.172 21.3509 331.263 19.0678L330.601 16.1418C320.465 18.4349 310.559 20.9198 300.928 23.5541L301.719 26.4478ZM361.147 13.0162C371.039 11.2488 381.095 9.68753 391.276 8.36774L390.89 5.39263C380.66 6.71882 370.557 8.28747 360.62 10.063L361.147 13.0162ZM421.572 5.21348C431.648 4.42614 441.805 3.89847 452.011 3.66258L451.942 0.663381C441.679 0.900594 431.466 1.43117 421.338 2.2226L421.572 5.21348ZM482.455 3.85206C492.58 4.22081 502.717 4.90432 512.834 5.9333L513.138 2.9487C502.953 1.91284 492.751 1.22505 482.564 0.854052L482.455 3.85206ZM542.984 10.069C552.966 11.8065 562.894 13.9155 572.737 16.426L573.478 13.5191C563.557 10.9886 553.553 8.86363 543.498 7.11348L542.984 10.069ZM601.865 25.1548C611.41 28.4624 620.838 32.1933 630.119 36.3765L631.352 33.6414C621.986 29.42 612.474 25.6562 602.848 22.3202L601.865 25.1548ZM657.203 50.149C665.928 55.1223 674.484 60.5525 682.842 66.4665L684.575 64.0176C676.135 58.046 667.496 52.5635 658.689 47.5427L657.203 50.149ZM706.733 85.1998C714.282 91.7422 721.628 98.746 728.746 106.235L730.92 104.168C723.736 96.6091 716.32 89.5384 708.698 82.9327L706.733 85.1998ZM748.585 129.158C751.707 133.118 754.773 137.19 757.782 141.375L760.218 139.624C757.184 135.403 754.09 131.296 750.941 127.301L748.585 129.158ZM757.782 141.375C760.943 145.773 763.82 150.105 766.424 154.374L768.985 152.811C766.34 148.475 763.42 144.08 760.218 139.624L757.782 141.375ZM779.767 181.744C783.466 192.025 785.471 201.886 785.937 211.344L788.933 211.197C788.451 201.415 786.379 191.261 782.589 180.728L779.767 181.744ZM782.029 241.329C779.014 250.734 774.349 259.722 768.198 268.309L770.636 270.056C776.948 261.246 781.765 251.981 784.886 242.245L782.029 241.329ZM747.736 290.857C740.516 297.363 732.388 303.598 723.451 309.568L725.118 312.063C734.157 306.024 742.402 299.702 749.744 293.086L747.736 290.857ZM696.993 325.286C688.235 329.944 678.965 334.415 669.247 338.703L670.458 341.448C680.236 337.133 689.572 332.631 698.402 327.935L696.993 325.286ZM640.749 350.3C631.337 353.84 621.614 357.236 611.625 360.493L612.555 363.346C622.583 360.076 632.348 356.665 641.805 353.108L640.749 350.3ZM582.08 369.516C572.315 372.31 562.357 374.986 552.243 377.547L552.979 380.455C563.121 377.887 573.109 375.203 582.905 372.4L582.08 369.516ZM522.234 384.715C512.27 386.959 502.197 389.101 492.046 391.142L492.638 394.083C502.81 392.038 512.906 389.891 522.893 387.641L522.234 384.715ZM461.711 396.911C451.592 398.728 441.431 400.452 431.259 402.083L431.734 405.045C441.924 403.411 452.104 401.685 462.241 399.863L461.711 396.911ZM400.713 406.707C390.475 408.167 380.257 409.537 370.092 410.82L370.467 413.796C380.648 412.512 390.882 411.14 401.136 409.677L400.713 406.707ZM339.412 414.448C329.07 415.591 318.818 416.643 308.691 417.609L308.976 420.595C319.117 419.628 329.384 418.574 339.741 417.43L339.412 414.448ZM277.953 420.309C267.487 421.15 257.204 421.896 247.146 422.551L247.341 425.545C257.414 424.889 267.712 424.142 278.194 423.3L277.953 420.309ZM216.229 424.317C211.051 424.571 205.952 424.799 200.939 425.001L201.061 427.999C206.081 427.796 211.189 427.568 216.376 427.314L216.229 424.317ZM200.925 425.002C196.191 425.239 191.397 425.515 186.563 425.833L186.76 428.827C191.578 428.51 196.356 428.234 201.075 427.998L200.925 425.002ZM157.885 428.181C148.313 429.124 138.734 430.234 129.294 431.52L129.699 434.492C139.099 433.212 148.641 432.106 158.179 431.167L157.885 428.181ZM100.854 436.043C91.0574 437.848 81.598 439.875 72.6653 442.137L73.4018 445.045C82.2608 442.801 91.6548 440.788 101.398 438.993L100.854 436.043ZM44.983 450.612C34.8418 454.394 25.9945 458.647 18.9351 463.419L20.6152 465.904C27.4139 461.309 36.0268 457.154 46.0311 453.423L44.983 450.612ZM1.14322 486.41C-0.443212 494.873 2.44711 504.079 10.3883 514.011L12.7314 512.138C5.11696 502.615 2.72121 494.275 4.09186 486.962L1.14322 486.41ZM31.4914 533.637C38.3022 538.747 46.3457 544.063 55.7175 549.591L57.2417 547.007C47.9451 541.523 39.9971 536.269 33.292 531.237L31.4914 533.637ZM80.8459 563.289C88.8263 567.344 97.4799 571.504 106.839 575.773L108.084 573.044C98.7589 568.79 90.1436 564.648 82.2048 560.615L80.8459 563.289ZM133.227 587.305C141.63 590.832 150.492 594.429 159.831 598.097L160.928 595.305C151.609 591.645 142.768 588.056 134.389 584.538L133.227 587.305ZM186.622 608.324C191.148 610.005 195.77 611.701 200.489 613.41L201.511 610.59C196.799 608.883 192.184 607.19 187.667 605.512L186.622 608.324ZM200.489 613.41C205.222 615.125 209.922 616.802 214.587 618.442L215.582 615.612C210.926 613.975 206.235 612.301 201.511 610.59L200.489 613.41ZM242.543 627.965C252.069 631.104 261.447 634.085 270.677 636.913L271.556 634.044C262.346 631.223 252.989 628.249 243.482 625.116L242.543 627.965ZM299.009 645.244C308.694 647.972 318.208 650.524 327.552 652.909L328.293 650.003C318.974 647.624 309.484 645.077 299.822 642.357L299.009 645.244ZM356.31 659.848C366.167 662.086 375.822 664.13 385.279 665.989L385.858 663.045C376.43 661.192 366.803 659.154 356.974 656.923L356.31 659.848ZM414.441 671.249C424.454 672.888 434.227 674.312 443.763 675.532L444.143 672.557C434.643 671.341 424.905 669.922 414.926 668.289L414.441 671.249ZM473.189 678.731C483.298 679.628 493.114 680.287 502.644 680.723L502.781 677.726C493.295 677.292 483.522 676.637 473.455 675.742L473.189 678.731ZM532.303 681.376C542.533 681.349 552.393 681.053 561.889 680.511L561.718 677.516C552.278 678.055 542.472 678.35 532.295 678.376L532.303 681.376ZM591.434 677.925C601.668 676.701 611.412 675.176 620.678 673.39L620.11 670.444C610.917 672.216 601.243 673.73 591.078 674.946L591.434 677.925ZM649.528 666.606C659.616 663.773 669.005 660.614 677.716 657.204L676.623 654.41C668.007 657.783 658.713 660.911 648.717 663.718L649.528 666.606ZM704.708 644.77C714.175 639.664 722.515 634.266 729.776 628.745L727.96 626.357C720.83 631.779 712.622 637.093 703.284 642.129L704.708 644.77ZM751.51 608.412C754.981 604.305 757.901 600.236 760.285 596.273L757.715 594.727C755.42 598.541 752.595 602.48 749.219 606.476L751.51 608.412ZM758.572 596.938C763.23 598.325 768.016 599.837 772.877 601.469L773.832 598.625C768.938 596.981 764.119 595.459 759.428 594.062L758.572 596.938ZM801.039 612.034C810.312 615.905 819.493 620.159 828.239 624.761L829.636 622.106C820.801 617.457 811.538 613.165 802.194 609.265L801.039 612.034ZM853.867 640.314C862.57 646.493 870.16 653.076 876.114 660.003L878.389 658.047C872.234 650.887 864.446 644.145 855.604 637.868L853.867 640.314ZM889.482 685.787C891.082 694.681 889.658 704.032 884.245 713.805L886.87 715.258C892.59 704.929 894.167 694.881 892.434 685.256L889.482 685.787ZM865.124 736.299C858.55 742.022 850.542 747.848 840.94 753.759L842.513 756.314C852.227 750.334 860.373 744.412 867.094 738.562L865.124 736.299ZM814.586 768.186C810.236 770.326 805.671 772.476 800.884 774.632L802.116 777.368C806.932 775.198 811.528 773.034 815.911 770.877L814.586 768.186ZM800.884 774.632C796.304 776.696 791.65 778.669 786.927 780.553L788.039 783.34C792.801 781.44 797.495 779.45 802.116 777.368L800.884 774.632ZM758.301 790.665C748.73 793.641 738.938 796.308 728.958 798.685L729.653 801.604C739.694 799.212 749.552 796.527 759.191 793.53L758.301 790.665ZM699.209 804.839C689.306 806.595 679.261 808.1 669.103 809.37L669.475 812.347C679.681 811.071 689.776 809.558 699.732 807.793L699.209 804.839ZM638.851 812.452C628.789 813.254 618.648 813.85 608.456 814.254L608.575 817.252C618.805 816.846 628.985 816.248 639.089 815.443L638.851 812.452ZM578.023 814.907C567.888 814.946 557.729 814.813 547.574 814.523L547.488 817.522C557.674 817.813 567.865 817.946 578.034 817.907L578.023 814.907ZM517.146 813.195C506.98 812.603 496.844 811.866 486.763 811L486.507 813.989C496.613 814.857 506.777 815.596 516.972 816.19L517.146 813.195ZM456.462 807.999C446.281 806.861 436.188 805.602 426.211 804.239L425.805 807.211C435.806 808.577 445.923 809.839 456.128 810.981L456.462 807.999ZM396.105 799.766C385.915 798.13 375.885 796.398 366.047 794.588L365.504 797.538C375.364 799.353 385.416 801.089 395.63 802.728L396.105 799.766ZM336.161 788.735C325.969 786.618 316.044 784.431 306.428 782.198L305.749 785.12C315.388 787.359 325.336 789.551 335.551 791.672L336.161 788.735ZM276.8 774.933C266.509 772.27 256.69 769.579 247.408 766.896L246.574 769.777C255.885 772.469 265.731 775.168 276.049 777.837L276.8 774.933ZM218.328 757.957C213.305 756.311 208.524 754.684 204 753.086L203 755.914C207.548 757.521 212.351 759.155 217.393 760.808L218.328 757.957ZM202.049 754.119C200.775 758.975 199.932 764.117 199.587 769.483L202.581 769.675C202.913 764.499 203.727 759.548 204.951 754.881L202.049 754.119ZM202.966 800.228C205.553 809.468 209.629 818.976 215.447 828.528L218.009 826.967C212.328 817.641 208.365 808.384 205.855 799.419L202.966 800.228ZM234.268 852.902C240.861 859.859 248.509 866.734 257.313 873.441L259.131 871.055C250.447 864.439 242.92 857.67 236.446 850.839L234.268 852.902ZM282.934 890.481C291.258 895.336 300.309 900.048 310.132 904.579L311.388 901.855C301.647 897.362 292.682 892.693 284.445 887.889L282.934 890.481ZM338.466 916.307C347.628 919.708 357.331 922.965 367.598 926.058L368.463 923.186C358.253 920.11 348.61 916.872 339.51 913.494L338.466 916.307ZM397.216 934.118C406.742 936.452 416.684 938.655 427.056 940.716L427.641 937.773C417.31 935.721 407.411 933.527 397.929 931.204L397.216 934.118ZM457.202 946.096C466.97 947.653 477.077 949.092 487.533 950.404L487.907 947.428C477.483 946.119 467.408 944.685 457.674 943.134L457.202 946.096ZM517.976 953.766C527.862 954.714 538.032 955.557 548.491 956.287L548.7 953.295C538.266 952.566 528.122 951.726 518.262 950.779L517.976 953.766ZM579.066 958.059C589.035 958.523 599.247 958.89 609.707 959.156L609.783 956.157C599.344 955.891 589.153 955.525 579.205 955.063L579.066 958.059ZM640.434 959.64C650.421 959.703 660.618 959.678 671.029 959.563L670.996 956.563C660.601 956.678 650.422 956.703 640.453 956.64L640.434 959.64ZM701.5 958.979C706.635 958.84 711.819 958.681 717.052 958.499L716.948 955.501C711.722 955.682 706.546 955.842 701.419 955.98L701.5 958.979Z" fill="#CFCFCF"/>
</svg>
