<svg width="139" height="36" viewBox="0 0 139 36" fill="none" xmlns="http://www.w3.org/2000/svg">
<g clip-path="url(#clip0_1_87)">
<path d="M118.657 0C118.984 0.0988468 119.487 0.217463 119.963 0.395387C125.225 2.40132 130.483 4.41516 135.737 6.4369C136.394 6.71425 137.034 7.02977 137.655 7.38188C138.774 7.97496 139.37 8.8448 138.751 10.1061C138.185 11.2488 137.23 11.3674 136.104 10.9404C133.017 9.7542 129.914 8.63921 126.819 7.48863C124.032 6.45272 121.253 4.61417 118.462 4.60231C115.733 4.60231 113.005 6.45272 110.276 7.48072C107.127 8.67216 103.975 9.85832 100.82 11.0392C99.6232 11.486 98.7773 11.0036 98.294 9.90445C97.8106 8.80527 98.3174 7.95914 99.3035 7.48468C105.322 4.58649 111.621 2.39604 117.873 0.0909374C118.131 0.0368178 118.393 0.00638349 118.657 0Z" fill="white"/>
<path d="M125.903 29.3931C123.564 29.3931 121.225 29.3496 118.914 29.4129C117.791 29.4445 117.265 29.1757 117.316 27.9065C117.402 25.6805 117.37 23.4465 117.316 21.2205C117.316 20.2716 117.495 19.7694 118.587 19.8129C122.656 19.979 126.741 19.6587 130.803 20.1609C133.141 20.4455 134.077 21.4538 134.256 23.834C134.685 29.3931 134.685 29.3931 129.189 29.3931H125.903Z" fill="white"/>
<path d="M118.622 35.9882C113.165 35.9882 107.735 35.9882 102.289 35.9882C100.98 35.9882 99.9506 35.7312 99.8375 34.1615C99.7167 32.4653 100.859 32.2913 102.114 32.236C110.6 31.8406 119.089 32.0225 127.579 32.0422C130.234 32.0422 132.892 31.9869 135.543 32.2716C136.712 32.3941 137.382 32.8567 137.328 34.0824C137.273 35.3081 136.63 35.9843 135.344 35.9803C129.77 35.9777 124.196 35.9803 118.622 35.9882Z" fill="white"/>
<path d="M115.866 22.2325C115.866 23.8141 115.913 25.3956 115.866 26.9455C115.807 28.3808 115.106 29.2981 113.578 29.3179C110.666 29.3179 107.758 29.3455 104.846 29.3179C103.599 29.3179 102.554 28.9501 102.508 27.3409C102.461 25.7317 103.455 25.3126 104.733 25.2375C106.6 25.1307 108.475 25.0318 110.346 25.0477C111.368 25.0477 111.683 24.7195 111.679 23.6994C111.679 21.7225 111.485 19.7455 111.843 17.816C112.046 16.6852 112.506 15.7284 113.823 15.8786C115.075 16.017 115.994 16.618 115.924 18.1521C115.862 19.5241 115.924 20.9 115.924 22.276L115.866 22.2325Z" fill="white"/>
<path d="M106.62 23.7074C104.69 23.7469 102.792 21.9835 102.722 20.0659C102.674 19.2915 102.855 18.5202 103.243 17.8513C103.631 17.1825 104.207 16.6467 104.898 16.3129C105.588 15.979 106.361 15.8625 107.118 15.9783C107.874 16.0941 108.579 16.4369 109.142 16.9626C109.705 17.4882 110.099 18.1727 110.275 18.9279C110.451 19.683 110.4 20.4743 110.129 21.1998C109.857 21.9253 109.378 22.5518 108.753 22.9987C108.128 23.4456 107.385 23.6925 106.62 23.7074Z" fill="white"/>
<path d="M3.88631 14.3604C4.16696 14.4987 4.30729 14.9534 4.30729 15.7323L4.52557 18.4012L4.72827 19.1406L5.9795 29.1439V30.0019L3.98376 29.8833L3.59397 25.9571L2.12445 25.8384L1.80093 30.1047L0.128713 30.2075L0.0117798 30.1047L1.18116 14.4632L3.88631 14.3604ZM2.32714 20.6312V23.8141H3.24316C3.38088 23.7429 3.24056 22.0414 2.82218 18.7096L2.4012 18.8085L2.32714 20.6312Z" fill="white"/>
<path d="M8.17394 14.2222L10.3529 14.4475L9.22248 27.8907L12.0095 28.1991L11.8068 30.2037L6.72002 29.6739L7.97125 15.2818L8.17394 14.2222Z" fill="white"/>
<path d="M15.2175 14.3604C16.4752 14.4289 17.3198 14.6463 17.7512 15.0127C17.9655 15.0127 18.2111 15.4398 18.4918 16.2977L18.7958 27.4318C18.7308 29.0635 17.9266 29.986 16.383 30.1996C14.6133 30.3459 13.4478 29.8872 12.8749 28.8118L12.6722 28.0566L12.5708 22.9165L12.6722 22.8137L12.4539 18.2075C12.1239 15.9274 13.0451 14.645 15.2175 14.3604ZM14.7965 16.6061L14.9992 27.7402L15.3189 28.3926C15.9503 28.6061 16.3362 28.3926 16.4882 27.7402L16.1686 16.5034L15.7437 16.1752C15.1785 16.1752 14.8628 16.3017 14.7965 16.6061Z" fill="white"/>
<path d="M22.2104 14.6334C22.4793 14.5661 22.6002 14.6334 22.6002 14.8587L24.4556 23.5256L24.7596 23.834L24.9818 23.7312C25.0494 23.1724 24.8064 20.1055 24.2529 14.5305L25.3872 14.325H26.1122L26.3149 16.1082L26.2135 16.2109L27.3439 29.575L25.0831 29.7965L23.9488 29.6936L22.0934 21.3312L21.7894 20.9042L21.5672 21.007L22.2961 30.002L20.6551 30.2077L20.3355 29.4722L20.4368 29.3694L19.2246 14.9615L22.2104 14.6334Z" fill="white"/>
<path d="M28.8291 14.3447L33.8301 14.5503L33.7287 16.5708L30.9066 16.468L30.8053 18.0495V20.4851L33.5338 20.5879V22.6083C32.0007 22.4607 31.0262 22.4607 30.6104 22.6083L30.3921 26.1905L30.4935 26.6175H30.3921L30.4935 28.1082L33.222 28.3138L33.1207 30.2156L28.0066 29.8914L28.8291 14.3447Z" fill="white"/>
<path d="M45.0093 14.3604C45.29 14.4987 45.4303 14.9534 45.4303 15.7323L45.6525 18.4012L45.8552 19.1406L47.1025 29.1439V30.0019L45.1107 29.8833L44.7209 25.9571L43.2514 25.8384L42.9318 30.1047L41.2595 30.2075L41.1426 30.1047L42.312 14.4632L45.0093 14.3604ZM43.4502 20.6312V23.8141H44.3974C44.5338 23.7429 44.3974 22.0427 43.9764 18.7096L43.5515 18.8085L43.4502 20.6312Z" fill="white"/>
<path d="M47.8626 14.3604H54.1305L54.2318 14.9099L54.1305 15.0127C54.2763 15.4779 54.2343 15.9827 54.0135 16.4164L53.5887 16.3136L52.1036 16.5192L52.2049 16.7406L52.0022 30.2075L49.6635 30.1047C49.8765 25.6473 49.9493 21.0846 49.8817 16.4164H47.8704C47.7187 15.74 47.716 15.0379 47.8626 14.3604Z" fill="white"/>
<path d="M62.32 14.3604H64.6354L64.3158 20.2912L64.4171 20.4137H65.684L66.0036 14.4513L68.2995 14.5541L67.4575 30.1956L65.1577 30.0928L65.5826 22.537L65.4618 22.4342H64.2144L63.9923 25.3996L64.1131 25.621L63.7896 29.9702L61.4781 29.8516L62.32 14.3604Z" fill="white"/>
<path d="M71.4763 14.3604C72.734 14.4289 73.5785 14.6463 74.0099 15.0127C74.2243 15.0127 74.4699 15.4398 74.7544 16.2977L75.0585 27.4318C74.9883 29.0635 74.1827 29.986 72.6418 30.1996C70.8721 30.3459 69.7066 29.8872 69.1336 28.8118L68.9309 28.0566L68.8296 22.9165L68.9309 22.8137L68.7282 18.2154C68.3878 15.93 69.3038 14.645 71.4763 14.3604ZM71.067 16.6061L71.2697 27.7402L71.5893 28.3926C72.2208 28.6061 72.6067 28.3926 72.7587 27.7402L72.4391 16.5034L72.0142 16.1752C71.4568 16.1752 71.1216 16.3017 71.067 16.6061Z" fill="white"/>
<path d="M75.495 14.4632L75.5964 14.5818L78.7537 14.3604L79.8178 20.5798L80.1413 20.8882L80.344 20.4612L80.6637 17.5788L80.5623 17.3574L80.9833 14.3604H84.3628L84.5655 24.5376L84.4641 24.6404L84.5655 30.0019H82.5542L82.4528 22.7188V22.6002C82.0357 22.6002 81.8642 22.7426 81.9305 23.0272L81.2016 30.0019H79.0928L78.0443 22.9244C78.0354 22.8794 78.0164 22.837 77.9886 22.8007C77.9609 22.7643 77.9252 22.735 77.8843 22.7151C77.8435 22.6951 77.7987 22.6851 77.7534 22.6858C77.7081 22.6864 77.6635 22.6977 77.6233 22.7188L77.7246 30.1047L77.4011 30.2075L77.2998 30.1047L75.8146 30.2075L75.612 29.4523L75.7133 29.3495L75.3937 14.6846L75.495 14.4632Z" fill="white"/>
<path d="M86.0194 14.3447L91.0165 14.5503L90.9152 16.5708L88.0931 16.468L87.9918 18.0495V20.4851L90.7203 20.5879V22.6083C89.1897 22.4607 88.2165 22.4607 87.8008 22.6083L87.5786 26.1905L87.6799 26.6175H87.5786L87.6799 28.1082L90.4085 28.3138L90.3071 30.2156L85.1891 29.8914L86.0194 14.3447Z" fill="white"/>
</g>
<defs>
<clipPath id="clip0_1_87">
<rect width="139" height="36" fill="white"/>
</clipPath>
</defs>
</svg>
